<?xml version="1.0" encoding="utf-8"?>
<!-- Generator: Adobe Illustrator 16.0.0, SVG Export Plug-In . SVG Version: 6.00 Build 0)  -->
<!DOCTYPE svg PUBLIC "-//W3C//DTD SVG 1.1//EN" "http://www.w3.org/Graphics/SVG/1.1/DTD/svg11.dtd">
<svg version="1.1" id="Layer_1" xmlns="http://www.w3.org/2000/svg" xmlns:xlink="http://www.w3.org/1999/xlink" x="0px" y="0px"
	 width="200px" height="200px" viewBox="0 0 200 200" enable-background="new 0 0 200 200" xml:space="preserve">
<path fill="#F72525" d="M0,100c0,55.229,44.771,100,100,100V0C44.771,0,0,44.771,0,100z"/>
<path fill="#008B8B" d="M100,0v200c55.229,0,100-44.771,100-100C200,44.771,155.229,0,100,0z"/>
<g>
	<g>
		<path fill="#D3D3D3" d="M173.541,100.954c0,1.553,0,3.104,0,4.672c-1.398,4.938-0.82,3.302-1.398,4.938
			c-2.983,8.5-8.474,14.582-16.627,18.322c-0.479,0.104-0.943,0.23-1.408,0.353c-11.998,3.091-22.187,0.342-30.237-9.333
			l-0.015-0.008c-0.561-0.762-1.123-1.512-1.666-2.262c-0.416-0.732-0.813-1.462-1.229-2.193c-1.938-3.952-2.688-8.262-3.657-12.5
			l-0.008-0.014c0.146-1.703,1.214-1.902,2.698-1.896c5.853,0.045,11.705-0.063,17.539-0.1c0.461,0.002,0.903,0.004,1.349,0.006"/>
		<path fill="#D3D3D3" d="M23.541,100.954c2.881-0.006,5.779-0.015,8.66-0.021c0.444,0,0.888,0.002,1.349,0.004
			c7.331-0.002,14.661-0.004,21.992-0.004c0.444,0,0.888,0.002,1.332,0.004c7.109-0.002,14.218-0.004,21.326-0.004
			c0.666,0,1.35,0.002,2.016,0.004c0.655,0.332,1.607-0.222,2.076,0.67c0.01,0.228,0.035,0.455,0.045,0.681
			c-0.85,11.937-7.574,19.428-18.131,24.024c-0.467,0.129-0.95,0.26-1.417,0.381c-2.197,0.479-4.394,0.949-6.59,1.425
			c-0.44,0.063-0.88,0.103-1.32,0.146c-1.552,0.025-3.12,0.031-4.672,0.037c-0.441-0.055-0.882-0.098-1.323-0.14
			c-7.885-1.271-14.824-4.185-19.969-10.668c-2.795-3.554-3.772-7.829-5.374-11.867C23.541,104.059,23.541,102.507,23.541,100.954z"
			/>
		<path fill="#D3D3D3" d="M108.965,86.29c0.002,0.445,0.004,0.891,0.021,1.336c-0.019,1.549-0.019,3.099-0.021,4.665
			c0.002,0.444,0.002,0.891,0.021,1.337c-0.019,1.549-0.021,3.098-0.021,4.664c0.021,2.22,0.025,4.438,0.03,6.672
			c-0.006,1.552-0.028,3.101-0.032,4.649c0.002,0.445,0.004,0.89,0.021,1.352c-0.018,1.551-0.02,3.098-0.021,4.648
			c0.002,0.445,0.004,0.892,0.021,1.337c-0.018,1.565-0.02,3.11-0.02,4.665c0,0.445,0.002,0.891,0.02,1.337
			c-0.018,1.122-0.021,2.221-0.022,3.335c0.006,0.889,0.028,1.777,0.034,2.666c-0.006,1.117-0.028,2.218-0.034,3.336
			c0.004,0.654,0.006,1.333,0.022,2.016c-0.018,1.329-0.02,2.661-0.022,3.992c0.004,0.646,0.006,1.328,0.022,2.012
			c-0.018,1.532-0.018,3.1-0.02,4.631c0.002,0.446,0.002,0.892,0.02,1.336c-0.047,0.916-0.034,1.805-0.139,2.68
			c-0.199,1.508,0.227,2.236,1.938,2.086c2.312-0.225,4.62-0.18,6.942-0.275c0.002,0,8.474,0.441,10.463-0.045l0.015,0.01
			c4.926,0.045,8.567,0.428,12.862,0.035c0.002,0-0.036,0.051-0.036,0.051c2.021,0.252,4.022,0.377,6.021-0.051
			c0.002,0-0.02,0.051-0.02,0.051c2.264-0.078,3.309,0.67,3.049,3.227c-0.299,2.868-0.283,5.796-0.005,8.637
			c0.247,2.693-0.806,3.029-3.175,3.023c-25.6-0.1-51.214-0.042-76.829-0.042c-5.651,0-11.308-0.194-16.951,0.059
			c-2.753,0.123-3.31-0.851-3.141-3.333c0.214-2.966,0.14-5.957,0-8.965c-0.082-1.803,0.356-2.611,2.347-2.47
			c2.2,0.151,4.435-0.029,6.645-0.062c0-0.002,0.249,0.047,0.249,0.047l0.257-0.045c1.856,0.127,3.731,0.342,5.575-0.143
			l-0.04,0.047c1.513,0.281,3.008,0.42,4.51-0.055l0.018,0.008c7.612,0.598,15.234,0.063,22.85,0.279
			c1.332,0.027,1.699-0.547,1.67-1.771c-0.09-3.003-0.11-5.975-0.141-8.944c-0.004-0.483-0.008-0.934-0.01-1.383
			c0.002-1.531,0.006-3.091,0.01-4.623c-0.004-0.494-0.008-0.963-0.012-1.431c0.004-3.312,0.008-6.603,0.012-9.92
			c-0.004-0.449-0.006-0.897-0.008-1.351c0.002-1.781,0.004-3.578,0.006-5.369c0.152-0.186,0.15-0.356-0.004-0.539
			c0.002-1.573,0.004-3.158,0.006-4.729c-0.004-0.466-0.006-0.914-0.01-1.365c0.004-1.545,0.006-3.09,0.01-4.637
			c-0.004-0.488-0.008-0.959-0.012-1.445c0.004-3.297,0.008-6.593,0.012-9.891c-0.004-0.448-0.006-0.896-0.008-1.344
			c0.002-1.588,0.004-3.176,0.008-4.748c-0.006-0.646-0.012-1.295-0.02-1.941c0.008-1.324,0.014-2.648,0.02-3.971
			c-0.004-0.449-0.006-0.898-0.01-1.348c0.004-1.546,0.006-3.107,0.01-4.654c-0.004-0.449-0.006-0.898-0.008-1.348
			c0.002-1.546,0.004-3.108,0.006-4.653c-0.004-0.45-0.008-0.899-0.012-1.349c0.004-1.323,0.008-2.646,0.014-3.97
			c-0.004-0.466-0.006-0.916-0.008-1.366c0.002-1.545,0.004-3.091,0.008-4.636c-0.004-0.466-0.008-0.916-0.01-1.365
			c0.002-1.545,0.006-3.091,0.01-4.636c-0.004-0.466-0.008-0.916-0.01-1.365c0.038-0.761,0.014-1.55,0.156-2.298
			c0.57-2.998-0.714-3.813-3.588-3.574c-3.393,0.291-6.832,0.149-10.258,0.201c-0.45,0-0.917,0-1.367-0.001
			c-1.322,0.005-2.645,0.01-3.969,0.015c-0.45-0.006-0.9-0.013-1.367-0.037c-1.545,0.023-3.09,0.028-4.635,0.034
			c-0.449-0.004-0.899-0.008-1.349-0.013c-0.778-0.052-1.562-0.045-2.316-0.146c-3.074-0.44-3.754,0.701-2.288,3.343
			c0.213,0.394,0.425,0.772,0.621,1.15c-0.027,0.534,0.028,1.043,0.512,1.393c1.146,3.862,2.525,7.624,4.214,11.277
			c-0.038,0.525,0,1.035,0.515,1.368c0.133,0.529,0.212,1.071,0.388,1.583C72.969,75.807,77.3,86.16,80.68,96.862
			c-0.175-0.088-0.33-0.065-0.47,0.086c-4.102,0.623-6.518-0.98-7.33-5.176c-0.334-1.674-1.313-3.215-2.012-4.818
			c0.039-0.55-0.027-1.039-0.537-1.374c-0.702-2.522-1.602-4.98-2.852-7.284c0.016-0.549-0.012-1.063-0.568-1.361
			c-0.612-2.74-1.796-5.28-2.963-7.826l0.002-0.035c-0.645-1.646-1.288-3.274-1.915-4.902l-0.051-0.186
			c-0.344-0.803-0.671-1.606-1.015-2.409c-1.611-4.33-3.222-8.66-5.11-13.72c-5.027,10.885-9.709,20.967-14.391,31.066
			c-1.214,2.459-2.412,4.9-3.626,7.359c-0.341,0.822-0.698,1.646-1.056,2.469c-0.631,1.156-1.294,2.299-1.871,3.475
			c-2.353,4.826-2.345,4.83-8.063,4.396c3.52-7.906,7.011-15.732,10.502-23.56c0.263-0.696,0.543-1.41,0.824-2.124
			c3.066-5.853,5.673-11.894,8.204-18.005c0.521-1.108,1.042-2.217,1.562-3.325c2.789-3.877,2.198-8.293,2.045-12.655
			c0.183-0.151,0.264-0.333,0.259-0.578c3.537-0.03,7.073-0.076,10.626-0.106c0.665,0.002,1.33,0.005,1.996,0.007
			c1.551-0.003,3.119-0.007,4.67-0.011c0.443,0.004,0.887,0.007,1.33,0.011c6.74,0.054,13.48,0.07,20.221,0.163
			c1.446,0.016,2.066-0.318,2.365-1.919c1.008-5.366,4.648-8.285,9.918-8.272c5.437,0.013,9.179,2.999,10.136,8.431
			c0.27,1.483,0.771,1.821,2.065,1.748c1.979-0.117,3.981-0.122,5.965-0.161c0.665,0.003,1.33,0.008,1.996,0.011
			c7.332-0.004,14.661-0.008,21.991-0.012c0.224,0.002,0.445,0.005,0.686,0.008c5.751,0.4,5.653,0.403,5.816,6.445
			c0.162,5.858,3.816,10.481,5.902,15.668c0.002,0-0.029,0-0.029,0c4.906,11.214,9.849,22.42,14.695,33.652
			c0.471,1.127,2.146,2.888-0.021,3.521c-1.707,0.505-4.085,1.354-5.327-1.558c-2.091-4.863-4.466-9.608-6.724-14.413l0.006,0.026
			c-2.479-5.344-4.943-10.688-7.422-16.031c-2.24-4.988-4.465-9.993-7.014-15.674c-1.404,3.365-2.505,5.893-3.533,8.461
			c-3.94,9.838-8.855,19.239-12.345,29.259c-0.801,1.688-1.836,3.309-2.346,5.078c-1.052,3.677-2.961,5.934-7.129,5.314
			c-0.937-2.631,0.983-4.713,1.388-7.076c1.133-2.137,2.124-4.339,2.723-6.694c0.785-0.978,1.229-2.077,1.342-3.294
			c1.375-2.561,2.521-5.229,3.322-8.02c0.444-0.323,0.655-0.76,0.582-1.327c2.385-5.766,4.787-11.517,7.188-17.283
			c0.963-2.297,1.926-4.612,3.019-7.202c-9.5,0-18.55,0.063-27.615-0.049c-2.223-0.02-1.84,1.33-1.84,2.608
			c-0.011,8.645-0.017,17.289,0.006,25.934"/>
	</g>
	<polygon fill="#008B8B" points="155,113 148,113 148,105 143,105 143,113 135,113 135,118 143,118 143,125 148,125 148,118 
		155,118 	"/>
	<rect x="43" y="112" fill="#F72525" width="20" height="5"/>
</g>
</svg>
