<?xml version="1.0" encoding="utf-8"?>
<svg version="1.2" baseProfile="tiny" id="Layer_1" xmlns="http://www.w3.org/2000/svg" x="0px" y="0px" width="200px" height="200px" viewBox="0 0 200 200" xml:space="preserve">
<path fill="#F72525" d="M0,100c0,55.229,44.771,100,100,100V0C44.771,0,0,44.771,0,100z"/>
<path fill="#0D870B" d="M100,0v200c55.229,0,100-44.771,100-100S155.229,0,100,0z"/>
<g>
	<g>
		<path fill-rule="evenodd" fill="#D3D3D3" d="M173.541,100.954c0,1.553,0,3.104,0,4.672c-1.398,4.938-0.82,3.302-1.398,4.938
			c-2.984,8.501-8.474,14.582-16.627,18.323c-0.48,0.104-0.944,0.23-1.408,0.352c-11.999,3.091-22.187,0.342-30.238-9.333
			l-0.014-0.007c-0.561-0.762-1.123-1.513-1.666-2.263c-0.416-0.731-0.813-1.461-1.23-2.192c-1.938-3.953-2.689-8.263-3.657-12.501
			l-0.008-0.014c0.146-1.703,1.214-1.902,2.698-1.896c5.852,0.045,11.705-0.063,17.539-0.1c0.461,0.002,0.904,0.004,1.349,0.006"/>
		<path fill-rule="evenodd" fill="#D3D3D3" d="M23.541,100.954c2.881-0.006,5.779-0.014,8.66-0.02c0.444,0,0.888,0.002,1.349,0.004
			c7.331-0.002,14.661-0.004,21.992-0.004c0.444,0,0.888,0.002,1.332,0.004c7.109-0.002,14.218-0.004,21.326-0.004
			c0.666,0,1.35,0.002,2.016,0.004c0.655,0.332,1.607-0.222,2.076,0.67c0.01,0.227,0.035,0.454,0.045,0.68
			c-0.85,11.936-7.574,19.428-18.131,24.024c-0.467,0.129-0.95,0.26-1.417,0.382c-2.197,0.478-4.394,0.948-6.59,1.424
			c-0.44,0.064-0.88,0.102-1.32,0.145c-1.552,0.026-3.12,0.032-4.672,0.038c-0.441-0.055-0.882-0.098-1.323-0.14
			c-7.885-1.271-14.824-4.184-19.969-10.668c-2.795-3.553-3.772-7.829-5.374-11.867C23.541,104.058,23.541,102.507,23.541,100.954z"
			/>
		<path fill-rule="evenodd" fill="#D3D3D3" d="M108.965,86.29c0.002,0.445,0.004,0.891,0.021,1.336
			c-0.018,1.549-0.018,3.099-0.02,4.665c0.002,0.444,0.002,0.891,0.02,1.337c-0.018,1.549-0.02,3.098-0.02,4.664
			c0.02,2.219,0.025,4.438,0.03,6.672c-0.006,1.551-0.028,3.1-0.032,4.649c0.002,0.445,0.004,0.89,0.021,1.352
			c-0.018,1.551-0.02,3.097-0.021,4.649c0.002,0.445,0.004,0.891,0.021,1.336c-0.018,1.566-0.02,3.111-0.02,4.665
			c0,0.446,0.002,0.891,0.02,1.337c-0.018,1.122-0.021,2.221-0.023,3.335c0.006,0.889,0.028,1.777,0.034,2.666
			c-0.006,1.118-0.028,2.218-0.034,3.336c0.004,0.654,0.006,1.333,0.023,2.015c-0.018,1.33-0.02,2.662-0.023,3.993
			c0.004,0.647,0.006,1.328,0.023,2.011c-0.018,1.533-0.018,3.1-0.02,4.632c0.002,0.446,0.002,0.891,0.02,1.336
			c-0.047,0.916-0.035,1.804-0.139,2.679c-0.199,1.508,0.226,2.236,1.938,2.086c2.312-0.224,4.621-0.18,6.943-0.276
			c0.002,0,8.473,0.442,10.463-0.044l0.014,0.01c4.926,0.045,8.568,0.427,12.863,0.034c0.002,0-0.037,0.051-0.037,0.051
			c2.021,0.253,4.023,0.378,6.021-0.051c0.002,0-0.02,0.051-0.02,0.051c2.264-0.077,3.309,0.67,3.049,3.227
			c-0.299,2.868-0.283,5.796-0.005,8.636c0.247,2.694-0.806,3.03-3.175,3.024c-25.599-0.099-51.214-0.042-76.828-0.042
			c-5.651,0-11.308-0.194-16.951,0.059c-2.753,0.123-3.31-0.851-3.141-3.333c0.214-2.966,0.14-5.957,0-8.965
			c-0.082-1.803,0.356-2.611,2.347-2.47c2.2,0.151,4.435-0.029,6.645-0.062c0-0.001,0.249,0.048,0.249,0.048l0.257-0.045
			c1.856,0.126,3.731,0.342,5.575-0.143l-0.04,0.047c1.513,0.281,3.008,0.42,4.51-0.055l0.018,0.008
			c7.612,0.597,15.234,0.062,22.85,0.28c1.332,0.026,1.699-0.547,1.67-1.771c-0.09-3.003-0.11-5.975-0.141-8.945
			c-0.004-0.483-0.008-0.933-0.01-1.382c0.002-1.531,0.006-3.091,0.01-4.623c-0.004-0.494-0.008-0.964-0.012-1.431
			c0.004-3.312,0.008-6.602,0.012-9.92c-0.004-0.449-0.006-0.898-0.008-1.35c0.002-1.782,0.004-3.579,0.006-5.369
			c0.152-0.186,0.15-0.357-0.004-0.54c0.002-1.573,0.004-3.158,0.006-4.728c-0.004-0.466-0.006-0.915-0.01-1.365
			c0.004-1.546,0.006-3.09,0.01-4.637c-0.004-0.488-0.008-0.959-0.012-1.446c0.004-3.297,0.008-6.593,0.012-9.89
			c-0.004-0.448-0.006-0.896-0.008-1.344c0.002-1.588,0.004-3.176,0.008-4.748c-0.006-0.646-0.012-1.295-0.02-1.941
			c0.008-1.324,0.014-2.648,0.02-3.971c-0.004-0.449-0.006-0.898-0.01-1.348c0.004-1.546,0.006-3.107,0.01-4.654
			c-0.004-0.449-0.006-0.898-0.008-1.348c0.002-1.546,0.004-3.108,0.006-4.653c-0.004-0.45-0.008-0.899-0.012-1.349
			c0.004-1.323,0.008-2.646,0.014-3.97c-0.004-0.466-0.006-0.916-0.008-1.366c0.002-1.545,0.004-3.091,0.008-4.636
			c-0.004-0.466-0.008-0.916-0.01-1.365c0.002-1.545,0.006-3.091,0.01-4.636c-0.004-0.466-0.008-0.916-0.01-1.365
			c0.038-0.761,0.014-1.55,0.156-2.298c0.57-2.998-0.714-3.813-3.588-3.574c-3.393,0.291-6.832,0.149-10.258,0.201
			c-0.45,0-0.917,0-1.367-0.001c-1.322,0.005-2.645,0.01-3.969,0.015c-0.45-0.006-0.9-0.013-1.367-0.037
			c-1.545,0.023-3.09,0.028-4.635,0.034c-0.449-0.004-0.899-0.008-1.349-0.013c-0.778-0.052-1.562-0.045-2.316-0.146
			c-3.074-0.44-3.754,0.701-2.288,3.343c0.213,0.394,0.425,0.772,0.621,1.15c-0.027,0.534,0.028,1.043,0.512,1.393
			c1.146,3.862,2.525,7.624,4.214,11.277c-0.038,0.525,0,1.035,0.515,1.368c0.133,0.529,0.212,1.071,0.388,1.583
			c3.79,10.573,8.121,20.926,11.501,31.628c-0.175-0.088-0.33-0.065-0.47,0.086c-4.102,0.623-6.518-0.98-7.33-5.176
			c-0.334-1.674-1.313-3.215-2.012-4.818c0.039-0.55-0.027-1.039-0.537-1.374c-0.702-2.522-1.602-4.98-2.852-7.284
			c0.016-0.549-0.012-1.063-0.568-1.361c-0.612-2.74-1.796-5.28-2.963-7.826l0.002-0.035c-0.645-1.646-1.288-3.274-1.915-4.902
			c0,0-0.051-0.186-0.051-0.186c-0.344-0.803-0.671-1.606-1.015-2.409c-1.611-4.33-3.222-8.66-5.11-13.72
			c-5.027,10.885-9.709,20.967-14.391,31.066c-1.214,2.459-2.412,4.9-3.626,7.359c-0.341,0.822-0.698,1.646-1.056,2.469
			c-0.631,1.156-1.294,2.299-1.871,3.475c-2.353,4.826-2.345,4.83-8.063,4.396c3.52-7.906,7.011-15.732,10.502-23.56
			c0.263-0.696,0.543-1.41,0.824-2.124c3.066-5.853,5.673-11.894,8.204-18.005c0.521-1.108,1.042-2.217,1.562-3.325
			c2.789-3.877,2.198-8.293,2.045-12.655c0.183-0.151,0.264-0.333,0.259-0.578c3.537-0.03,7.073-0.076,10.626-0.106
			c0.665,0.002,1.33,0.005,1.996,0.007c1.551-0.003,3.119-0.007,4.67-0.011c0.443,0.004,0.887,0.007,1.33,0.011
			c6.74,0.054,13.48,0.07,20.221,0.163c1.446,0.016,2.066-0.318,2.365-1.919c1.008-5.366,4.648-8.285,9.918-8.272
			c5.436,0.013,9.179,2.999,10.136,8.431c0.269,1.483,0.771,1.821,2.065,1.748c1.98-0.117,3.982-0.122,5.965-0.161
			c0.665,0.003,1.33,0.008,1.996,0.011c7.332-0.004,14.662-0.008,21.992-0.012c0.223,0.002,0.445,0.005,0.685,0.008
			c5.751,0.4,5.653,0.403,5.817,6.445c0.161,5.858,3.816,10.481,5.901,15.668c0.002,0-0.028,0-0.028,0
			c4.906,11.214,9.848,22.42,14.694,33.652c0.472,1.127,2.147,2.888-0.021,3.521c-1.707,0.505-4.085,1.354-5.327-1.558
			c-2.091-4.863-4.466-9.608-6.724-14.413l0.006,0.026c-2.479-5.344-4.943-10.688-7.422-16.031
			c-2.24-4.988-4.465-9.993-7.014-15.674c-1.404,3.365-2.504,5.893-3.533,8.461c-3.94,9.838-8.855,19.239-12.344,29.259
			c-0.801,1.688-1.836,3.309-2.346,5.078c-1.051,3.677-2.961,5.934-7.129,5.314c-0.936-2.631,0.984-4.713,1.388-7.076
			c1.132-2.137,2.124-4.339,2.722-6.694c0.786-0.978,1.229-2.077,1.342-3.294c1.376-2.561,2.521-5.229,3.322-8.02
			c0.445-0.323,0.656-0.76,0.583-1.327c2.384-5.766,4.786-11.517,7.188-17.283c0.963-2.297,1.926-4.612,3.018-7.202
			c-9.499,0-18.549,0.063-27.615-0.049c-2.222-0.02-1.84,1.33-1.84,2.608c-0.01,8.645-0.016,17.289,0.006,25.934"/>
	</g>
	<polygon fill-rule="evenodd" fill="#0D870B" points="155,113 148,113 148,105 143,105 143,113 135,113 135,118 143,118 143,125 
		148,125 148,118 155,118 	"/>
	<rect x="43" y="112" fill-rule="evenodd" fill="#F72525" width="20" height="5"/>
</g>
</svg>
