<?xml version="1.0" encoding="utf-8"?>
<!-- Generator: Adobe Illustrator 16.0.0, SVG Export Plug-In . SVG Version: 6.00 Build 0)  -->
<!DOCTYPE svg PUBLIC "-//W3C//DTD SVG 1.1//EN" "http://www.w3.org/Graphics/SVG/1.1/DTD/svg11.dtd">
<svg version="1.1" id="Layer_1" xmlns="http://www.w3.org/2000/svg" xmlns:xlink="http://www.w3.org/1999/xlink" x="0px" y="0px"
	 width="200px" height="200px" viewBox="0 0 200 200" enable-background="new 0 0 200 200" xml:space="preserve">
<circle fill="#F72525" cx="100" cy="100" r="100"/>
<g>
	<path fill="#D3D3D3" d="M47.525,98.591c1.204-2.882,2.561-5.705,3.4-8.729c-0.13-1.534,0.843-2.737,1.227-4.117
		c1.246-2.838,2.265-5.767,3.477-8.617c1.197-3.01,2.373-6.028,3.731-8.97c0.574-1.34,1.23-2.646,1.756-4.008
		c0.225-0.416,0.436-0.84,0.637-1.269c0.448-0.967,1.087-1.839,1.392-2.875c1.861-3.023,3.586-6.133,5.764-8.951
		c0.421-0.669,0.988-1.227,1.446-1.868c0.696-0.956,1.609-1.706,2.409-2.565c0.601-0.582,1.213-1.153,1.726-1.82
		c1.12-1.015,2.346-1.9,3.521-2.848c0.437-0.324,0.892-0.622,1.327-0.948c2.555-1.626,5.214-3.03,8.155-3.839
		c1.572-0.377,3.112-0.89,4.718-1.124c1.408-0.159,2.799-0.49,4.23-0.39c1.286-0.045,2.571-0.019,3.855-0.019
		c1.665-0.006,3.259,0.489,4.892,0.701c1.276,0.288,2.559,0.561,3.824,0.892c3.164,0.742,6.051,2.203,9.014,3.469
		c2.904,1.334,5.58,3.017,7.918,5.215c0.232,0.235,0.461,0.477,0.727,0.679c1.563,1.144,2.842,2.566,3.982,4.116
		c0.271,0.461,0.636,0.851,0.959,1.272c0.734,1.191,1.515,2.357,2.104,3.634c1.413,2.913,1.883,6.067,2.387,9.215
		c0.057,0.986,0.045,1.972,0.023,2.958c-0.332,3.109-0.738,6.204-1.807,9.167c-0.482,1.437-1.303,2.729-1.814,4.155
		c-0.404,0.866-1.002,1.617-1.492,2.432c-0.402,0.525-0.738,1.1-1.203,1.579c-1.104,0.935-1.765,2.285-2.941,3.149
		c-0.567,0.33-1.023,0.788-1.465,1.265c-1.002,0.956-2.123,1.745-3.355,2.376c-2.593,1.345-5.273,2.44-8.186,2.884
		c-1.508,0.201-3.014,0.424-4.52,0.656c-1.348,0.016-2.697-0.012-4.023,0.293c-2.074-0.037-4.129,0.288-6.199,0.322
		c-0.821,0.073-1.659-0.114-2.465,0.168c-1.854,0.171-3.727,0.169-5.547,0.638c-1.183,0.187-2.343,0.489-3.51,0.753
		c-0.793,0.271-1.575,0.571-2.343,0.907c-0.792,0.351-1.551,0.771-2.326,1.159c-2.892,1.804-5.017,4.257-6.295,7.428
		c-0.456,1.161-0.797,2.354-0.985,3.59c-0.391,2.168-0.364,4.332,0.005,6.496c0.043,1.032,0.218,2.045,0.475,3.045
		c0.299,1.558,0.598,3.114,0.883,4.676c0.249,1.367,0.367,2.754,0.606,4.125c0.172,1.629,0.165,3.261,0.001,4.89
		c-0.292,0.78-0.141,1.623-0.321,2.42c-0.442,1.896-0.754,3.819-1.162,5.726c-0.525,1.461-0.869,2.981-1.462,4.42
		c-0.541,1.39-1.049,2.793-1.747,4.117c-0.613,1.293-1.244,2.578-2.004,3.793c-0.274,0.375-0.472,0.793-0.672,1.207
		c-0.769,1.164-1.522,2.338-2.333,3.476c-1.517,1.926-3.068,3.817-4.85,5.512c-0.491,0.467-0.995,0.871-1.655,1.052
		c-1.088,0.731-2.178,1.463-3.267,2.192c-0.374,0.228-0.747,0.45-1.12,0.678c-1.732,0.57-3.365,1.437-5.184,1.752
		c-0.707,0.076-1.414,0.15-2.121,0.228c-1.586-0.187-3.172-0.373-4.758-0.56c-1.756-0.663-3.513-1.327-5.27-1.991
		c-0.256-0.112-0.513-0.228-0.769-0.343c-1.188-0.204-2.167-0.791-3.003-1.639c-1.551-1.117-3.121-2.207-4.647-3.354
		c-2.725-2.047-4.944-4.522-6.339-7.679c0.013-0.235,0.007-0.465-0.253-0.586c-0.312-0.739-0.568-1.494-0.61-2.31
		c-0.23-1.348-0.217-2.696-0.008-4.047c0.211-0.961,0.422-1.92,0.634-2.881c0.282-0.771,0.564-1.545,0.848-2.315
		c1.531-3.097,3.062-6.188,4.593-9.285c1.137-3.11,2.824-5.918,4.719-8.61c0.656-0.541,0.721-1.388,1.072-2.086
		c0.375-0.688,0.597-1.445,0.974-2.134c0.872-1.59,1.543-3.282,2.536-4.808c0.208-0.342,0.389-0.696,0.555-1.062
		c0.51-1.024,1.041-2.041,1.517-3.084c0.743-1.399,1.445-2.817,2-4.307c0.508-0.83,0.597-1.828,1.064-2.677
		c0.44-0.599,0.567-1.396,1.194-1.873C46.474,101.502,47.035,100.062,47.525,98.591z"/>
	<path fill="#D3D3D3" d="M93.235,28.185c0.002-0.524,0.005-1.047,0.008-1.571c-0.129-2.298,0.396-4.426,1.656-6.363
		c0.466-0.777,0.927-1.561,1.547-2.234c0.641-0.608,1.241-1.258,1.893-1.857c0.58-0.437,1.218-0.757,1.912-0.971
		c1.502-0.462,2.972-0.452,4.386,0.313c0.373,0.218,0.719,0.479,1.075,0.722c0.468,0.353,0.771,0.842,1.09,1.317
		c0.318,0.523,0.515,1.091,0.626,1.69c0.077,1.109,0.053,2.22,0.028,3.33c-0.031,0.468-0.183,0.903-0.365,1.33
		c-1.255,3.558-3.334,6.468-6.644,8.405c-0.972,0.607-2.008,0.969-3.176,0.831C94.469,32.386,93.604,31.328,93.235,28.185z"/>
	<path fill="#D3D3D3" d="M88.257,33.708c-0.189,0.206-0.379,0.411-0.57,0.618c-1.218,1.002-2.401,2.063-4.031,2.365
		c-2.395,0.62-3.609-0.074-4.632-2.646c-0.112-0.671-0.225-1.342-0.336-2.014c-0.649-0.913-0.11-1.83-0.015-2.746
		c0.097-0.439,0.245-0.864,0.385-1.291c0.466-1.027,0.644-2.223,1.674-2.927c0.791-0.903,1.505-1.866,2.429-2.656
		c1.883-1.61,3.785-1.833,5.98-0.619c1.689,0.932,2.569,2.91,2.197,5.075c-0.378,2.201-1.084,4.271-2.588,5.997
		C88.541,33.105,88.42,33.425,88.257,33.708z"/>
	<path fill="#D3D3D3" d="M158.832,29.459c2.378,3.775,2.268,7.768,1.038,11.859c-0.165,0.547-0.31,1.1-0.462,1.65
		c0.025,0.997-0.482,1.815-0.893,2.666c-0.375,0.71-0.769,1.409-1.209,2.081c-0.793,1.058-1.439,2.221-2.271,3.256
		c-0.824,1.336-2.199,2.098-3.287,3.16c-0.456,0.268-0.845,0.63-1.271,0.939c-0.606,0.32-1.168,0.722-1.795,1.01
		c-1.271,0.633-2.623,1.029-3.981,1.417c-1.461,0.15-2.923,0.168-4.384,0.007c-1.547-0.452-3.209-0.668-4.318-2.047
		c-0.305-0.088-0.152-0.616-0.572-0.592c-1.15-1.174-1.965-2.562-2.596-4.067c-0.439-1.709-0.282-3.443-0.215-5.174
		c-0.262-1.35,0.23-2.47,1.066-3.485c1.403-2.916,3.118-5.633,5.209-8.109c0.33-0.581,0.531-1.242,1.067-1.693
		c2.454-2.479,5.335-4.303,8.576-5.579c1.009-0.289,2.055-0.388,3.081-0.591c1.803-0.052,3.503,0.343,5.103,1.174
		C157.621,27.851,158.45,28.433,158.832,29.459z"/>
	<path fill="#D3D3D3" d="M128.193,42.419c-3.902,0.233-5.403-0.734-7.213-4.648c-0.881-1.057-0.734-2.291-0.613-3.521
		c0.423-3.481,1.563-6.678,3.783-9.44c0.795-0.919,1.646-1.785,2.578-2.571c1.26-0.888,2.619-1.549,4.164-1.767
		c1.645-0.157,3.115,0.366,4.526,1.137c1.578,0.827,2.837,1.958,3.492,3.667c0.426,1.318,0.489,2.663,0.28,4.026
		c-0.33,1.117-0.28,2.374-1.194,3.278c-1.526,3.237-3.513,6.098-6.5,8.192C130.465,41.497,129.371,42.024,128.193,42.419z"/>
	<path fill="#D3D3D3" d="M118.043,32.583c-0.408,0.181-0.634,0.529-0.824,0.909c-0.474,1.21-1.533,1.337-2.619,1.418
		c-1.662,0.415-3.311,0.589-4.893-0.3c-0.357-0.294-0.714-0.59-1.07-0.885c-1.271-0.605-1.301-1.876-1.611-2.998
		c-0.099-1.941-0.187-3.882,0.596-5.731c0.854-2.626,2.479-4.718,4.527-6.519c0.541-0.477,1.066-0.962,1.748-1.237
		c1.219-0.48,2.48-0.412,3.746-0.315c2.67,0.472,4.301,2.015,4.83,4.696c0.502,3.773-0.785,6.973-3.152,9.827
		C118.951,31.892,118.591,32.343,118.043,32.583z"/>
</g>
<g>
	<path fill="#D3D3D3" d="M132.419,143.938c0.966-0.949,1.884-1.953,2.965-2.779c0.64-0.195,0.966-0.781,1.46-1.159
		c0.941-0.96,1.956-1.847,2.908-2.794c1.02-0.969,2.045-1.932,3.01-2.953c0.446-0.445,0.866-0.923,1.33-1.354
		c0.131-0.158,0.268-0.313,0.408-0.461c0.316-0.338,0.564-0.735,0.934-1.025c0.916-1.239,1.891-2.436,2.672-3.77
		c0.201-0.277,0.334-0.598,0.52-0.886c0.271-0.437,0.428-0.924,0.645-1.385c0.139-0.337,0.27-0.677,0.455-0.989
		c0.227-0.615,0.385-1.252,0.576-1.879c0.061-0.229,0.106-0.46,0.167-0.688c0.242-1.293,0.378-2.59,0.228-3.903
		c-0.103-0.694-0.145-1.397-0.309-2.083c-0.164-0.594-0.257-1.207-0.527-1.768c-0.189-0.524-0.408-1.037-0.615-1.557
		c-0.268-0.671-0.725-1.232-1.073-1.855c-0.323-0.467-0.64-0.938-0.979-1.396c-0.81-1.154-1.864-2.081-2.854-3.068
		c-1.007-0.955-2.117-1.761-3.38-2.348c-0.132-0.055-0.267-0.107-0.392-0.184c-0.713-0.443-1.492-0.729-2.303-0.938
		c-0.229-0.033-0.443-0.117-0.666-0.181c-0.6-0.104-1.195-0.229-1.805-0.261c-1.4-0.099-2.748,0.225-4.098,0.529
		c-0.405,0.137-0.803,0.301-1.194,0.469c-1.199,0.638-2.379,1.302-3.397,2.209c-0.5,0.429-0.891,0.967-1.381,1.403
		c-0.283,0.304-0.488,0.664-0.738,0.994c-0.146,0.246-0.323,0.476-0.441,0.739c-0.199,0.597-0.635,1.08-0.792,1.693
		c-0.041,0.283-0.151,0.539-0.272,0.795c-0.224,0.56-0.358,1.138-0.414,1.734c-0.123,1.264-0.131,2.52,0.162,3.764
		c0.162,0.642,0.316,1.283,0.465,1.927c0.211,0.545,0.441,1.085,0.533,1.668c0.351,0.829,0.551,1.71,0.873,2.55
		c0.104,0.341,0.314,0.646,0.33,1.02c0.231,0.774,0.535,1.528,0.641,2.338c0.115,0.506,0.184,1.021,0.266,1.535
		c0.021,0.362,0.023,0.729,0.016,1.09c-0.015,0.375-0.062,0.75-0.093,1.125c-0.258,1.455-0.901,2.709-1.973,3.735
		c-0.396,0.372-0.819,0.701-1.287,0.978c-0.812,0.509-1.687,0.849-2.617,1.05c-0.423,0.147-0.858,0.241-1.303,0.302
		c-0.677,0.131-1.353,0.264-2.026,0.398c-0.591,0.121-1.168,0.299-1.76,0.425c-0.686,0.192-1.339,0.461-1.968,0.789
		c-0.271,0.243-0.634,0.319-0.925,0.521c-0.69,0.483-1.416,0.92-2.116,1.395c-0.505,0.445-1.062,0.83-1.546,1.303
		c-0.471,0.441-0.954,0.874-1.375,1.369c-0.422,0.456-0.836,0.919-1.202,1.421c-0.106,0.172-0.242,0.317-0.377,0.466
		c-0.345,0.498-0.695,0.991-1.022,1.502c-0.529,0.924-1.042,1.854-1.437,2.846c-0.107,0.271-0.188,0.541-0.155,0.836
		c-0.119,0.558-0.236,1.115-0.354,1.67c-0.031,0.188-0.063,0.375-0.094,0.562c0.053,0.79-0.033,1.587,0.135,2.371
		c0.082,0.297,0.168,0.595,0.25,0.892c0.332,0.608,0.664,1.217,0.994,1.825c0.551,0.601,1.104,1.2,1.654,1.8
		c0.087,0.086,0.174,0.17,0.264,0.256c0.273,0.444,0.668,0.744,1.146,0.943c0.7,0.444,1.394,0.9,2.103,1.329
		c1.264,0.769,2.621,1.261,4.116,1.313c0.093-0.045,0.187-0.08,0.276,0.007c0.35,0.006,0.695-0.013,1.029-0.128
		c0.58-0.125,1.121-0.35,1.631-0.65c0.353-0.24,0.705-0.48,1.057-0.721c0.266-0.239,0.531-0.479,0.796-0.717
		c0.999-1.117,1.998-2.234,2.997-3.354c1.068-0.961,1.928-2.094,2.705-3.292c0.111-0.353,0.441-0.515,0.667-0.771
		c0.216-0.262,0.485-0.475,0.702-0.736c0.5-0.605,1.072-1.15,1.525-1.799c0.104-0.139,0.219-0.27,0.338-0.396
		c0.33-0.371,0.652-0.748,0.998-1.109c0.441-0.523,0.899-1.036,1.41-1.502c0.25-0.338,0.639-0.534,0.904-0.859
		c0.169-0.273,0.471-0.454,0.563-0.784C131.417,144.831,131.906,144.373,132.419,143.938z"/>
	<path fill="#D3D3D3" d="M153.382,114.145c0.211-0.086,0.421-0.17,0.632-0.258c0.946-0.318,1.717-0.873,2.295-1.693
		c0.236-0.313,0.479-0.627,0.648-0.984c0.141-0.355,0.307-0.702,0.441-1.063c0.082-0.305,0.107-0.611,0.082-0.928
		c-0.058-0.68-0.299-1.27-0.834-1.717c-0.147-0.113-0.311-0.211-0.465-0.314c-0.219-0.131-0.465-0.174-0.707-0.228
		c-0.263-0.042-0.521-0.028-0.781,0.021c-0.461,0.147-0.902,0.338-1.346,0.526c-0.186,0.089-0.334,0.22-0.479,0.361
		c-1.229,1.081-2.064,2.389-2.313,4.034c-0.088,0.49-0.063,0.967,0.18,1.414C151.491,114.327,152.057,114.505,153.382,114.145z"/>
	<path fill="#D3D3D3" d="M151.963,117.043c-0.052,0.109-0.104,0.219-0.156,0.328c-0.207,0.652-0.443,1.302-0.302,2.007
		c0.138,1.063,0.613,1.442,1.815,1.437c0.289-0.063,0.576-0.125,0.865-0.188c0.473,0.111,0.754-0.252,1.107-0.438
		c0.16-0.109,0.309-0.237,0.458-0.363c0.337-0.354,0.791-0.618,0.907-1.146c0.234-0.466,0.508-0.908,0.678-1.408
		c0.346-1.02,0.125-1.819-0.719-2.508c-0.646-0.529-1.586-0.563-2.396-0.063c-0.826,0.508-1.546,1.127-1.996,2.011
		C152.16,116.831,152.051,116.932,151.963,117.043z"/>
	<path fill="#D3D3D3" d="M142.264,87.933c-1.906-0.347-3.496,0.343-4.945,1.5c-0.191,0.155-0.394,0.302-0.59,0.453
		c-0.403,0.15-0.651,0.487-0.93,0.79c-0.226,0.267-0.443,0.537-0.643,0.823c-0.299,0.491-0.662,0.939-0.944,1.44
		c-0.405,0.548-0.489,1.225-0.741,1.834c-0.033,0.228-0.117,0.442-0.172,0.664c-0.031,0.297-0.104,0.588-0.117,0.887
		c-0.05,0.614,0.01,1.223,0.073,1.833c0.177,0.612,0.404,1.204,0.706,1.766c0.434,0.551,0.788,1.185,1.521,1.409
		c0.086,0.107,0.272-0.038,0.332,0.135c0.658,0.272,1.35,0.377,2.058,0.389c0.759-0.1,1.433-0.442,2.118-0.75
		c0.586-0.112,0.957-0.49,1.23-0.994c0.946-1.037,1.764-2.167,2.424-3.408c0.182-0.228,0.414-0.416,0.51-0.705
		c0.602-1.39,0.871-2.845,0.859-4.355c-0.048-0.453-0.177-0.891-0.261-1.337c-0.271-0.734-0.704-1.354-1.298-1.864
		C143.107,88.161,142.738,87.921,142.264,87.933z"/>
	<path fill="#D3D3D3" d="M141.998,102.367c0.537,1.609,1.169,2.058,3.038,2.154c0.567,0.184,1.042-0.076,1.519-0.323
		c1.332-0.732,2.438-1.71,3.189-3.05c0.242-0.472,0.453-0.954,0.619-1.456c0.152-0.651,0.199-1.305,0.037-1.963
		c-0.201-0.688-0.65-1.195-1.188-1.64c-0.588-0.501-1.247-0.826-2.042-0.813c-0.6,0.041-1.152,0.232-1.667,0.537
		c-0.396,0.313-0.91,0.496-1.127,1.012c-1.056,1.139-1.888,2.4-2.248,3.941C142.001,101.303,141.966,101.829,141.998,102.367z"/>
	<path fill="#D3D3D3" d="M147.6,104.865c-0.007,0.193-0.11,0.341-0.231,0.479c-0.411,0.387-0.29,0.833-0.146,1.284
		c0.102,0.735,0.297,1.429,0.91,1.922c0.178,0.097,0.354,0.192,0.529,0.288c0.447,0.414,0.966,0.221,1.468,0.164
		c0.8-0.273,1.595-0.553,2.212-1.166c0.922-0.77,1.5-1.761,1.895-2.878c0.104-0.296,0.215-0.585,0.216-0.903
		c-0.003-0.568-0.235-1.063-0.478-1.561c-0.623-0.999-1.509-1.406-2.674-1.186c-1.601,0.405-2.681,1.441-3.447,2.857
		C147.73,104.389,147.607,104.604,147.6,104.865z"/>
</g>
</svg>
